<?xml version="1.0" encoding="utf-8"?>
<!-- Generator: Adobe Illustrator 27.1.1, SVG Export Plug-In . SVG Version: 6.00 Build 0)  -->
<svg version="1.1" id="Ebene_1" xmlns="http://www.w3.org/2000/svg" xmlns:xlink="http://www.w3.org/1999/xlink" x="0px" y="0px"
	 viewBox="0 0 1273.3 510.42" style="enable-background:new 0 0 1273.3 510.42;" xml:space="preserve">
<style type="text/css">
	.st0{fill:none;stroke:#291E38;stroke-width:1.6293;stroke-linecap:round;stroke-miterlimit:10;}
	.st1{fill:#291E38;}
	.st2{fill:#F39422;}
</style>
<g>
	<path d="M281.47,207.7v-41.64c0-40.78-33.18-73.95-73.95-73.95h-57.27c-9.21,0-16.68,7.47-16.68,16.68v343.62
		c0,9.21,7.47,16.68,16.68,16.68h114.54c72.36,0,131.22-58.87,131.22-131.22C396.02,271.16,345.99,215.92,281.47,207.7z
		 M166.93,125.47h40.59c22.38,0,40.59,18.21,40.59,40.59v40.39h-40.59c-9.21,0-16.68,7.47-16.68,16.68v212.59h-23.9V125.47z
		 M264.79,435.73H224.2V239.82h38.17c0.79,0.12,1.6,0.2,2.42,0.2c53.96,0,97.86,43.9,97.86,97.86
		C362.65,391.83,318.75,435.73,264.79,435.73z"/>
	<g>
		<g>
			<line class="st0" x1="14.9" y1="183.13" x2="270.77" y2="12.93"/>
			<path class="st1" d="M275.85,9.55c2.07,3.11,1.22,7.31-1.89,9.38s-7.31,1.22-9.38-1.89c-2.07-3.11-1.22-7.31,1.89-9.38
				S273.78,6.44,275.85,9.55z"/>
			<path class="st1" d="M18.55,180.7c2.07,3.11,1.22,7.31-1.89,9.38c-3.11,2.07-7.31,1.22-9.38-1.89c-2.07-3.11-1.22-7.31,1.89-9.38
				C12.28,176.75,16.48,177.59,18.55,180.7z"/>
		</g>
		
			<rect x="128.47" y="85.77" transform="matrix(0.8326 -0.5538 0.5538 0.8326 -31.0644 94.953)" class="st2" width="26.2" height="26.2"/>
	</g>
</g>
<g>
	<path d="M474.51,95.97c45.87,0.47,86.32,38.34,86.32,86.32c0,45.4-38.1,86.09-86.32,86.09h-57.63V95.97H474.51z M467.22,239.93
		c29.4,0,55.28-22.11,55.28-57.63c0-31.75-21.17-57.86-55.28-57.86h-14.11v115.49H467.22z"/>
	<path d="M624.81,238.99h57.63l-2.35,29.4h-91.5V95.97h91.5l2.35,29.4h-57.63V183h48.22l-2.35,27.52h-45.87V238.99z"/>
	<path d="M703.6,233.34l26.58-18.35c9.64,13.64,19.29,27.05,36.69,27.05c13.88,0,20.23-10.82,20.23-18.35
		c0-29.87-70.8-32.93-70.8-82.09c0-30.11,24.46-47.51,54.1-47.51c16.7,0,34.58,7.06,46.57,18.35l-22.11,23.29
		c-6.59-6.35-15.52-13.17-24.7-13.17c-9.88,0-18.82,7.76-18.82,18.35c0,25.64,70.56,35.28,70.56,79.03
		c0,30.11-27.05,50.1-55.28,50.1C739.59,270.03,719.13,253.8,703.6,233.34z"/>
	<path d="M887.77,268.39h-36.22V95.97h36.22V268.39z"/>
	<path d="M1076.18,167.72v67.27c-16.46,21.64-42.57,35.52-71.5,35.75c-46.57-0.24-88.44-38.34-88.68-87.97
		c0-47.28,38.81-88.68,88.68-89.15c20.46,0,39.28,6.82,54.34,18.82l-12.7,28.7c-9.88-9.41-23.29-15.99-38.34-15.99
		c-29.4,0-54.33,26.11-54.33,57.39c0,29.64,23.29,57.16,54.33,57.16c14.35,0,27.76-5.88,38.34-16.23v-28.23h-51.28l2.12-27.28
		C1023.49,167.95,1050.07,167.72,1076.18,167.72z"/>
	<path d="M1238,270.5h-3.06l-91.73-88.91v86.79h-35.05V95.5h1.65l93.14,91.73V95.97H1238V270.5z"/>
</g>
<g>
	<path class="st2" d="M632.48,488.28c-7.02,0.35-13.32-0.34-18.9-2.06c-8.42-2.56-14.9-7.35-19.42-14.39
		c-4.64-6.98-7.2-15.26-7.67-24.85c-0.17-3.37-0.02-6.72,0.44-10.06c1.04-7.89,3.03-15.48,5.99-22.78
		c5.97-14.54,14.07-27.73,24.29-39.57c15.41-17.99,33.22-32.06,53.42-42.22c4.05-21.02,8.23-40.97,12.56-59.84l0.84-3.9
		c-7.55,3.47-11.67,5.21-12.35,5.25c-0.34,0.02-0.75-0.05-1.21-0.2c-0.88-0.35-1.34-1.1-1.4-2.25c-0.05-0.91,0.32-1.65,1.09-2.2
		c4.97-3.62,10.22-6.69,15.76-9.2c7.13-31.48,14.61-62.86,22.44-94.14c0.23-1.16,0.94-1.76,2.14-1.82l0.69,0.05
		c1.1,0.35,1.71,1.09,1.83,2.23l0.75,15.07c0.03,0.63-0.17,1.18-0.6,1.66c-0.44,0.48-0.99,0.74-1.68,0.77
		c-0.86,0.04-1.56-0.32-2.11-1.1c-5.58,24.76-11.01,49.52-16.3,74.27c3.82-1.39,7.68-2.67,11.57-3.84
		c22.61-11.19,43.18-22.8,61.69-34.82c7.54-4.89,14.8-10.18,21.78-15.84c12.33-9.71,21.38-19.37,27.14-28.98
		c4.01-6.72,5.84-13.79,5.47-21.21c-0.05-0.97-0.25-2.73-0.61-5.29c-0.36-2.56-1.88-5.36-4.58-8.4c-2.7-3.04-6.03-5.35-10-6.93
		c-8.11-3.14-18.53-4.4-31.25-3.77c-2.51,0.12-5.05,0.34-7.61,0.63c-17.74,2.2-35.16,6.24-52.26,12.13
		c-17.05,5.65-33.46,12.82-49.22,21.5c-7.85,4.28-15.25,9.14-22.19,14.58c-8.53,6.77-13.7,13.21-15.52,19.31
		c-0.5,1.57-1.57,2.4-3.22,2.48c-0.34,0.02-0.72-0.02-1.12-0.12c-1.63-0.55-2.48-1.59-2.56-3.13c-0.05-0.97,0.47-2.6,1.56-4.88
		c1.5-3.28,3.57-6.38,6.23-9.32c7.59-8.5,18.79-16.75,33.61-24.76c16.21-8.76,33.04-15.97,50.5-21.65
		c17.38-5.9,35.24-9.91,53.55-12.02c2.44-0.29,4.87-0.5,7.26-0.62c6.85-0.34,13.7-0.08,20.55,0.78c11.51,1.49,20.18,5.49,26,12.01
		c3.89,4.67,6,10.29,6.33,16.85c0.19,3.82-0.11,7.59-0.9,11.29c-1.88,8.16-6.51,16.37-13.88,24.63
		c-6.18,6.94-12.87,13.23-20.09,18.85c-17.89,14.22-39.99,28.22-66.31,42c5.16-0.89,10.34-1.46,15.53-1.72
		c6.28-0.31,12.61-0.17,18.99,0.43c17.88,1.69,32.29,7.95,43.24,18.79c9.7,9.87,14.92,22.26,15.66,37.15
		c0.12,2.45,0.1,4.91-0.06,7.38c-0.92,14.81-5.21,29.84-12.86,45.09c-6.97,14.02-15.39,27.02-25.26,39.02
		c-19.69,24.03-42.46,44.65-68.32,61.84c-12.78,8.7-26.32,16.04-40.61,22.01C657.01,484.43,644.07,487.71,632.48,488.28z
		 M631.93,482.39c10.73-0.53,23.04-3.69,36.94-9.47c13.84-5.9,27.01-13.16,39.51-21.79c25.25-16.93,47.44-37.2,66.57-60.81
		c9.54-11.75,17.64-24.33,24.29-37.77c3.27-6.74,5.96-13.68,8.06-20.83c3.04-10.22,4.34-19.78,3.89-28.68
		c-0.64-12.9-5.12-23.66-13.45-32.28c-9.58-9.65-22.56-15.32-38.95-17.03c-6.38-0.6-12.77-0.74-19.16-0.42
		c-11.59,0.58-24.2,2.89-37.84,6.95c-3.46,1.72-6.96,3.38-10.48,4.98l-2.01,9.54c-3.98,18.91-7.55,36.85-10.71,53.82
		c15.79-6.85,31.48-10.66,47.06-11.44c4.39-0.22,8.83-0.21,13.3,0.03c1.09,0.06,1.66,0.63,1.72,1.72c0.03,0.68-0.14,1.19-0.52,1.53
		c-0.38,0.33-0.78,0.51-1.18,0.53l-0.26,0.01c-3.96-0.2-7.88-0.21-11.76-0.02c-16.66,0.83-33.1,5.16-49.3,13.01
		c-0.32,1.56-0.62,3.15-0.88,4.76c-2.59,13.4-4.9,27.96-6.92,43.68c-1.15,9.15-1.59,16.24-1.34,21.26c0.07,1.31,0.14,2.19,0.22,2.65
		c1.21,0.11,2.21,0.69,3,1.74c0.43,0.61,0.67,1.28,0.7,2.03c0.08,1.54-0.52,2.77-1.79,3.69c-1.28,0.69-2.35,1.06-3.21,1.1
		c-0.23,0.01-0.54,0.03-0.94,0.05c-0.4,0.02-0.91-0.1-1.52-0.35c-0.61-0.26-1.11-0.55-1.5-0.87c-0.39-0.32-0.72-0.67-1-1.02
		s-0.48-0.66-0.6-0.91s-0.22-0.45-0.29-0.59c-0.06-0.14-0.1-0.24-0.1-0.29c-0.6-1.63-0.92-3.04-0.98-4.24l-0.02-0.34l-0.11-0.51
		c-0.32-6.33,0.25-14.46,1.71-24.37c1.84-13.65,4-26.54,6.49-38.68l0.88-4.68c-18.49,10.24-34.59,23.52-48.31,39.82
		c-9.78,11.58-17.5,24.33-23.16,38.22c-2.74,6.94-4.56,14.07-5.46,21.38c-0.42,3.17-0.55,6.26-0.4,9.29
		c0.21,4.11,0.92,8.16,2.15,12.16c2.32,7.49,6.21,13.22,11.67,17.18c5.86,4,12.49,6.1,19.88,6.31
		C627.85,482.51,629.88,482.49,631.93,482.39z M901.85,356.89c-3.31,0.17-6-0.96-8.06-3.38c-3.48-4.4-5.46-11.34-5.93-20.82
		c-0.09-1.77-0.12-3.51-0.09-5.23c0.16-11.68,1.61-23.45,4.34-35.31c-2.19,1.94-4.47,3.86-6.84,5.75
		c-4.83,4.01-10.34,7.29-16.5,9.83c-2.42,0.86-4.48,1.34-6.19,1.42c-1.31,0.07-2.72-0.06-4.22-0.39
		c-4.24,11.31-7.99,20.56-11.23,27.76c-3.8,8.71-6.52,13.8-8.17,15.25l-0.49,0.45c-0.55,0.37-1.12,0.57-1.69,0.6
		c-0.06,0-0.3-0.01-0.73-0.05s-0.86-0.34-1.29-0.92c-0.43-0.58-0.66-1.16-0.69-1.73c-0.04-0.74,0.3-1.42,1.02-2.02
		c0-0.06,0.01-0.09,0.04-0.09c0.03,0,0.08-0.03,0.17-0.09c0.08-0.06,0.15-0.12,0.21-0.18l-0.08,0l0.08-0.09
		c0.38-0.42,0.91-1.22,1.6-2.4c4.39-7.2,10.16-19.96,17.32-38.28c-3.93-3.07-6.06-8.05-6.41-14.96c-0.14-2.91,0.05-6.38,0.6-10.41
		c1.8-13.3,5.84-24.66,12.12-34.07c0.91-1.3,1.96-2.5,3.17-3.59c1.47-1.5,3.26-2.31,5.37-2.41c0.17-0.01,0.31,0,0.43,0.02
		c0.12,0.02,0.2,0.03,0.26,0.03c0.06,0,0.12,0.02,0.17,0.08c0.86-0.04,1.65,0.32,2.37,1.08c1.38,1.3,2.14,3.36,2.28,6.15l-0.02,1.37
		c-0.35,5.62-1.2,10.93-2.55,15.92l-0.15,0.44c-2.73,10.72-6.58,22.9-11.57,36.53l1.29,0.02c1.54-0.08,3.18-0.47,4.92-1.19
		c5.09-2.25,9.95-5.3,14.56-9.13c2.31-1.89,4.75-3.98,7.33-6.29l0.66-0.55c0-0.06,0.01-0.09,0.04-0.09c0.03,0,0.1-0.03,0.21-0.1
		c0.77-0.61,1.78-0.95,3.04-1.01c1.25-0.06,2.38,0.25,3.39,0.95c1.36,0.79,2.3,1.97,2.84,3.55c0.14,0.51,0.22,1.05,0.25,1.62
		c0,1.15-0.11,1.92-0.31,2.33c-2.51,11.57-3.95,23-4.3,34.28c-0.07,2.12-0.05,4.21,0.05,6.26c0.39,7.82,1.65,13.08,3.79,15.77
		c0.86,1.1,1.97,1.62,3.34,1.55c2.05-0.1,4.38-1.08,6.98-2.92c4.7-3.32,9.72-8.21,15.06-14.65c8.57-10.67,16.98-22.67,25.24-36.01
		l8.64-14.33c0.42-0.71,1-1.08,1.75-1.12c0.4-0.02,0.81,0.1,1.22,0.37c0.71,0.42,1.08,1.01,1.12,1.75c0.02,0.4-0.08,0.78-0.29,1.13
		l0,0.09l-0.08,0l-8.73,14.33c-0.89,1.76-4.52,7.46-10.91,17.11c-8.57,12.9-16.53,23.1-23.88,30.62l-0.9,0.82
		c-1.69,1.63-3.56,3.2-5.6,4.7c-2.04,1.5-4.5,2.7-7.37,3.58C903.18,356.77,902.53,356.86,901.85,356.89z M856.6,301.3l2.8-7.6
		c6.89-19.05,10.57-33.54,11.05-43.46l-0.04-0.77c-0.08-1.6-0.28-2.67-0.59-3.23c-0.12-0.11-0.18-0.19-0.18-0.25l-0.6-0.06
		c-0.11,0.01-0.39,0.14-0.84,0.38c-1.28,0.69-2.53,1.99-3.75,3.88c-5.63,8.75-9.19,19.42-10.68,32.02
		c-0.36,3.05-0.47,6.09-0.32,9.11c0.14,2.74,0.66,5.2,1.57,7.39C855.41,299.73,855.94,300.59,856.6,301.3z"/>
	<path class="st2" d="M1001.84,314.07c-7.42,0.37-11.44-5.61-12.05-17.94c-0.21-4.28-0.13-9,0.24-14.17
		c-4.54,8.69-9.72,16.82-15.52,24.37c-4.15,5.24-8.1,7.95-11.87,8.14c-1.88,0.09-3.63-0.53-5.24-1.88c-3-2.71-4.63-6.89-4.92-12.54
		c-0.06-1.2-0.03-2.37,0.08-3.52c0.92-8.05,4.24-17.8,9.96-29.24c0.57-1.11,1.49-1.7,2.74-1.77c0.51-0.03,1.06,0.06,1.64,0.26
		c1.12,0.63,1.71,1.58,1.77,2.83c0.02,0.46-1.15,3.4-3.51,8.84c-4.51,10.58-6.62,18.75-6.33,24.51c0.02,0.46,0.11,1.3,0.25,2.52
		c0.15,1.22,0.82,2.52,2.04,3.89c0.42,0.49,0.92,0.73,1.49,0.7c0.68-0.03,1.53-0.33,2.53-0.9c1.94-1.24,3.8-2.91,5.59-5
		c3.57-4.13,6.85-8.71,9.83-13.75c2.98-5.04,5.99-10.38,9.03-16.03c0.21-0.41,0.32-0.64,0.35-0.7c0.03-0.06,0.07-0.12,0.12-0.18
		c0.05-0.06,0.18-0.21,0.37-0.45c0.19-0.24,0.45-0.48,0.78-0.73c0.05,0,0.15-0.05,0.29-0.14c0.14-0.09,0.38-0.15,0.72-0.17
		c0.28-0.01,0.66,0.08,1.13,0.29c0.93,0.35,1.43,1.07,1.48,2.16c0.03,0.63-0.06,2.89-0.26,6.79c-0.55,6.15-0.74,10.99-0.57,14.53
		c0.51,10.22,3.02,15.21,7.52,14.99c1.48-0.07,3.01-0.49,4.57-1.26c4.29-2.27,8.08-4.95,11.36-8.03
		c6.45-6.1,11.37-11.21,14.77-15.32l5.52-6.37l0-0.09c0.32-0.36,0.72-0.55,1.17-0.57c0.52-0.03,0.96,0.12,1.35,0.45
		c0.39,0.32,0.6,0.71,0.62,1.17c0.02,0.46-0.13,0.89-0.45,1.31l-5.5,6.62c-9.49,11.63-18.49,19.83-27.01,24.6
		C1005.58,313.4,1003.55,313.99,1001.84,314.07z"/>
	<path class="st2" d="M1013.64,399.56c-1.94,0.1-4.3,0.04-7.09-0.16c-2.79-0.2-5.93-1.11-9.45-2.71c-3.51-1.6-6.27-4.12-8.27-7.57
		c-1.32-2.45-2.09-5.22-2.3-8.29c-0.05-1.08-0.07-1.94-0.04-2.57c0.81-11.42,8.23-22.69,22.26-33.8c10.41-8.07,20.85-15,31.32-20.78
		c3.23-1.82,6.43-3.58,9.61-5.28l-7.55-15.59c-4.32-8.59-6.67-16.86-7.07-24.79c-0.15-3.08,0.01-6.15,0.49-9.21
		c1.69-9.75,6.69-18.38,15.02-25.89c6.67-6.17,13.67-9.92,20.98-11.26l1.37-0.15c4.45-0.22,7.73,1.22,9.83,4.32
		c0.82,1.56,1.26,2.97,1.33,4.23c0.02,0.46-0.01,0.89-0.11,1.29c-0.23,2.24-0.82,4.28-1.76,6.09l-1.41,2.73
		c-0.85,1.42-2.04,2.16-3.58,2.24c-0.74,0.04-1.47-0.15-2.17-0.58c-1.36-0.79-2.07-1.96-2.15-3.5c-0.04-0.74,0.13-1.49,0.49-2.26
		l1.43-2.39c0.72-1.52,1.06-2.77,1.01-3.74l-0.09-0.08c-0.42-0.32-1.28-0.45-2.59-0.39c-5.08,0.25-10.97,3.21-17.67,8.86
		c-10.04,8.51-14.78,18.67-14.19,30.48c0.34,6.79,2.27,14.05,5.8,21.77c1.29,2.91,3.66,8.03,7.11,15.35
		c7.13-3.79,15.9-8.26,26.28-13.41c13.96-6.82,25.12-12.66,33.46-17.54c7.22-4.25,11.72-7.65,13.48-10.2l0.56-0.89
		c0.37-0.65,0.9-0.99,1.58-1.02c0.23-0.01,0.49,0.03,0.78,0.13c0.64,0.31,0.99,0.84,1.02,1.58c0.01,0.23-0.03,0.49-0.13,0.78
		l-0.96,1.42c-1.91,2.96-6.73,6.74-14.45,11.36c-7.95,4.63-22.76,12.37-44.41,23.23c-5.02,2.54-10.21,5.23-15.56,8.07
		c2.25,5.04,4.09,10.38,5.52,16.03c0.77,2.88,1.23,5.8,1.38,8.77c0.19,3.88-0.16,7.82-1.04,11.81c-1.6,6.94-4.46,13.32-8.57,19.13
		c-6.25,8.89-14.26,15.76-24.03,20.59C1024.44,398.02,1019.29,399.28,1013.64,399.56z M1012.75,395.48
		c8.22-0.41,15.85-3.33,22.91-8.78c5.35-3.99,9.89-8.7,13.63-14.15c6.14-8.83,8.97-18.04,8.5-27.63
		c-0.31-6.33-2.47-14.01-6.47-23.02l-9.27,5.18c-32.91,18.06-50.06,35.13-51.43,51.22c-0.04,0.29-0.05,0.63-0.03,1.03l0.03,0.51
		l-0.04,0.86c0.07,0.17,0.1,0.36,0.12,0.59c0.1,2.05,0.69,4,1.75,5.83c1.45,2.62,3.61,4.63,6.48,6.03
		C1003.34,394.95,1007.96,395.72,1012.75,395.48z"/>
	<path class="st2" d="M1121.57,333.43c-1.43,0.07-2.65-0.33-3.66-1.19c-1.02-0.87-1.56-2.07-1.64-3.61c-0.03-0.63-0.01-1,0.07-1.12
		c0.08-0.12,0.11-0.29,0.1-0.52c1.7-10.73,4.11-23.8,7.23-39.23c-0.51,0.03-0.98-0.15-1.4-0.53c-0.42-0.38-0.65-0.91-0.68-1.6
		c-0.03-0.51,0.12-0.98,0.45-1.4l3.24-3.85c5.53-25.62,12.61-51.29,21.23-77c6.22-18.79,14.05-36.8,23.49-54.03
		c9.1-15.96,18.59-27.04,28.47-33.25c3.33-2.11,6.62-3.25,9.87-3.41c1.83-0.09,3.61,0.19,5.36,0.85c3.88,2.1,5.97,6.14,6.27,12.13
		c0.06,1.2,0.03,2.35-0.09,3.44c-1.13,10.7-5.3,23.35-12.53,37.95c-12.34,24.47-27.81,49.27-46.42,74.39
		c-9.22,12.42-18.68,24.67-28.38,36.77c-3.29,14.35-6.1,28.02-8.43,41.01l-0.14,0.69l0.09,0c3.78-8.03,7.67-15.79,11.67-23.28
		c4-7.49,8.8-14.35,14.38-20.58c3.42-3.77,7.17-6.02,11.25-6.74c2.79-0.14,5.22,0.26,7.27,1.18c4.98,2.33,7.92,7.39,8.82,15.18
		c0.12,0.11,0.29,1.3,0.52,3.58c0.67,6.6,1.92,10.32,3.73,11.14l0.7,0.31c0.7,0.19,1.61,0.26,2.76,0.21
		c1.88-0.09,3.83-0.53,5.85-1.32c5.34-1.98,10.17-4.37,14.49-7.16c9.71-5.98,18.83-12.46,27.35-19.47c3.96-3.17,6.17-4.77,6.63-4.79
		c0.97-0.05,1.48,0.44,1.53,1.47c0.02,0.46-0.19,0.87-0.63,1.23l-5.52,4.56c-16.41,13.98-30.56,23.43-42.44,28.37
		c-2.01,0.9-4.31,1.42-6.87,1.54c-6.22,0.31-9.96-2.51-11.23-8.45c-0.28-1.13-0.86-4.59-1.72-10.38c-0.4-3.47-1.41-6.42-3.02-8.86
		c-1.77-2.26-4.06-3.32-6.85-3.18c-2.74,0.14-5.66,1.91-8.75,5.33c-4.93,5.62-9.29,12.19-13.09,19.7
		c-3.93,7.29-7.7,14.94-11.3,22.96l-3.72,8.08C1124.89,332.38,1123.45,333.34,1121.57,333.43z M1134.75,268.76
		c5.4-6.45,13.03-16.38,22.89-29.8c19.12-26.12,34.2-50.79,45.23-73.99c3.63-7.56,6.67-15.46,9.12-23.71
		c1.77-5.92,2.54-11,2.33-15.22c-0.26-5.19-2.04-7.71-5.35-7.54c-2.11,0.1-4.58,1.03-7.41,2.77c-5.15,3.4-9.93,8.02-14.33,13.84
		c-0.21,0.35-0.45,0.68-0.72,0.98c-0.49,0.6-1.23,1.66-2.24,3.2c-3.31,4.8-6.09,9.29-8.34,13.46
		C1160.1,182.2,1146.38,220.87,1134.75,268.76z"/>
</g>
<g>
	<path d="M1019.14,458.72c-1.99,1.96-4.79,3.18-7.83,3.18c-5.89,0-11.22-4.94-11.22-11.19c0-5.89,5-11.22,11.22-11.22
		c2.59,0,5,0.89,6.87,2.38l-1.25,2.86c-1.49-1.43-3.54-2.26-5.77-2.26c-4.25,0-7.8,3.75-7.8,8.24c0,4.25,3.3,8.21,7.8,8.21
		c2.29,0,4.37-0.92,5.83-2.41L1019.14,458.72z"/>
	<path d="M1033.48,461.6l-3.09-7.38c-0.24,0.03-0.48,0.06-0.74,0.06h-3.84v7.32h-3v-21.81h6.78c3.69,0,7.23,3.09,7.23,7.23
		c0,2.35-1.16,4.58-3.39,6.13l3.42,8.45H1033.48z M1029.61,451.52c2.35,0,4.25-2.05,4.25-4.49c0-2.26-1.79-4.46-4.25-4.46h-3.81
		v8.96H1029.61z"/>
	<path d="M1056.86,461.6h-3.3l-1.34-3.27h-8.42l-1.34,3.27h-3.21l8.84-22.2L1056.86,461.6z M1051.12,455.47l-3.12-7.94l-3.09,7.94
		H1051.12z"/>
	<path d="M1062.87,451.43h6.19l-0.3,3h-5.89v7.17h-2.98v-21.81h10.74l0.3,2.95h-8.06V451.43z"/>
	<path d="M1082.65,442.38v19.22h-3v-19.22h-5.74l0.3-2.59h13.9l0.3,2.59H1082.65z"/>
	<path d="M1095.33,461.6h-3v-21.81h3V461.6z"/>
	<path d="M1103.48,448v13.6h-3v-22.08l12.47,14.13v-13.87h3v22.23L1103.48,448z"/>
	<path d="M1139.57,448.72v8.87c-2.02,2.56-5.21,4.31-8.81,4.31c-5.92,0-11.22-4.94-11.22-11.22c0-5.89,5-11.22,11.22-11.19
		c2.65,0,4.97,0.86,6.87,2.38l-1.28,2.92c-1.46-1.46-3.51-2.44-5.71-2.44c-4.28,0-8.15,3.84-8.15,8.36c0,4.34,3.63,8.36,8.15,8.36
		c2.11,0,4.23-0.8,5.77-2.32v-5.21h-7.23l0.24-2.8C1132.78,448.75,1136.2,448.72,1139.57,448.72z"/>
	<path d="M1160.39,454.28h-3.81v7.32h-3v-21.81h6.81c3.66,0,7.23,3.09,7.23,7.23C1167.62,450.74,1164.55,454.28,1160.39,454.28z
		 M1160.39,451.52c2.35,0,4.31-2.11,4.31-4.49c0-2.23-1.81-4.46-4.25-4.46h-3.87v8.96H1160.39z"/>
	<path d="M1174.93,461.6h-3v-21.81h3V461.6z"/>
	<path d="M1191.15,461.6l-4.61-7.97l-4.61,7.97h-3.39l6.31-10.92l-6.28-10.89h3.45l4.52,7.86l4.52-7.86h3.42l-6.22,10.8l6.37,11.01
		H1191.15z"/>
	<path d="M1201.03,458.69h8.06l-0.3,2.92h-10.77v-21.81h10.77l0.3,2.95h-8.06v8.69h6.87l-0.3,3h-6.58V458.69z"/>
	<path d="M1225.24,458.69l-0.3,2.92h-11.66v-21.81h3.06v18.89H1225.24z"/>
	<path d="M1227.29,457.14l2.59-1.79c1.52,2.11,2.77,3.63,5.42,3.63c2.62,0,3.48-2.08,3.48-2.95c0-4.28-9.61-4.52-9.61-10.59
		c0-3.81,2.98-5.89,6.49-5.89c2.11,0,4.31,0.92,5.74,2.23l-2.05,2.17c-1.1-1.01-2.47-1.67-3.66-1.67c-1.79,0-3.45,1.37-3.45,3.21
		c0,3.48,9.58,5,9.58,10.15c0,3.75-3.6,6.13-6.63,6.13C1231.84,461.78,1229.02,459.61,1227.29,457.14z"/>
</g>
</svg>
