<?xml version="1.0" encoding="utf-8"?>
<!-- Generator: Adobe Illustrator 27.1.1, SVG Export Plug-In . SVG Version: 6.00 Build 0)  -->
<svg version="1.1" id="Ebene_1" xmlns="http://www.w3.org/2000/svg" xmlns:xlink="http://www.w3.org/1999/xlink" x="0px" y="0px"
	 viewBox="0 0 454.1 515.36" style="enable-background:new 0 0 454.1 515.36;" xml:space="preserve">
<style type="text/css">
	.st0{fill:none;stroke:#291E38;stroke-width:1.6293;stroke-linecap:round;stroke-miterlimit:10;}
	.st1{fill:#291E38;}
	.st2{fill:#F39422;}
	.st3{fill:#FFFFFF;}
</style>
<g>
	<path d="M301.3,223.79v-41.64c0-40.78-33.18-73.95-73.95-73.95h-57.27c-9.21,0-16.68,7.47-16.68,16.68V468.5
		c0,9.21,7.47,16.68,16.68,16.68h114.54c72.36,0,131.22-58.87,131.22-131.22C415.84,287.25,365.81,232.01,301.3,223.79z
		 M186.76,141.56h40.59c22.38,0,40.59,18.21,40.59,40.59v40.39h-40.59c-9.21,0-16.68,7.47-16.68,16.68v212.59h-23.9V141.56z
		 M284.62,451.82h-40.59V255.9h38.17c0.79,0.12,1.6,0.2,2.42,0.2c53.96,0,97.86,43.9,97.86,97.86
		C382.47,407.92,338.57,451.82,284.62,451.82z"/>
	<g>
		<g>
			<line class="st0" x1="34.72" y1="199.21" x2="290.59" y2="29.02"/>
			<path class="st1" d="M295.68,25.64c2.07,3.11,1.22,7.31-1.89,9.38c-3.11,2.07-7.31,1.22-9.38-1.89
				c-2.07-3.11-1.22-7.31,1.89-9.38C289.41,21.68,293.61,22.53,295.68,25.64z"/>
			<path class="st1" d="M38.37,196.79c2.07,3.11,1.22,7.31-1.89,9.38s-7.31,1.22-9.38-1.89c-2.07-3.11-1.22-7.31,1.89-9.38
				C32.11,192.83,36.3,193.67,38.37,196.79z"/>
		</g>
		
			<rect x="148.29" y="101.86" transform="matrix(0.8326 -0.5538 0.5538 0.8326 -36.6547 108.6242)" class="st2" width="26.2" height="26.2"/>
	</g>
</g>
</svg>
