<?xml version="1.0" encoding="utf-8"?>
<!-- Generator: Adobe Illustrator 27.1.1, SVG Export Plug-In . SVG Version: 6.00 Build 0)  -->
<svg version="1.1" id="Ebene_1" xmlns="http://www.w3.org/2000/svg" xmlns:xlink="http://www.w3.org/1999/xlink" x="0px" y="0px"
	 viewBox="0 0 1323.02 515.36" style="enable-background:new 0 0 1323.02 515.36;" xml:space="preserve">
<style type="text/css">
	.st0{fill:none;stroke:#291E38;stroke-width:1.6293;stroke-linecap:round;stroke-miterlimit:10;}
	.st1{fill:#291E38;}
	.st2{fill:#F39422;}
	.st3{font-family:'Carmelot';}
	.st4{font-size:173.3464px;}
</style>
<g>
	<path d="M307.3,212.79v-41.64c0-40.78-33.18-73.95-73.95-73.95h-57.27c-9.21,0-16.68,7.47-16.68,16.68V457.5
		c0,9.21,7.47,16.68,16.68,16.68h114.54c72.36,0,131.22-58.87,131.22-131.22C421.84,276.25,371.81,221.01,307.3,212.79z
		 M192.76,130.56h40.59c22.38,0,40.59,18.21,40.59,40.59v40.39h-40.59c-9.21,0-16.68,7.47-16.68,16.68v212.59h-23.9V130.56z
		 M290.62,440.82h-40.59V244.9h38.17c0.79,0.12,1.6,0.2,2.42,0.2c53.96,0,97.86,43.9,97.86,97.86
		C388.47,396.92,344.57,440.82,290.62,440.82z"/>
	<g>
		<g>
			<line class="st0" x1="40.72" y1="188.21" x2="296.59" y2="18.02"/>
			<path class="st1" d="M301.68,14.64c2.07,3.11,1.22,7.31-1.89,9.38c-3.11,2.07-7.31,1.22-9.38-1.89
				c-2.07-3.11-1.22-7.31,1.89-9.38C295.41,10.68,299.61,11.53,301.68,14.64z"/>
			<path class="st1" d="M44.37,185.79c2.07,3.11,1.22,7.31-1.89,9.38s-7.31,1.22-9.38-1.89c-2.07-3.11-1.22-7.31,1.89-9.38
				C38.11,181.83,42.3,182.67,44.37,185.79z"/>
		</g>
		
			<rect x="154.29" y="90.86" transform="matrix(0.8326 -0.5538 0.5538 0.8326 -29.5584 110.1061)" class="st2" width="26.2" height="26.2"/>
	</g>
</g>
<g>
	<path d="M512.09,101.26c46.16,0.47,86.87,38.58,86.87,86.87c0,45.69-38.35,86.64-86.87,86.64H454.1V101.26H512.09z M504.75,246.12
		c29.59,0,55.63-22.25,55.63-57.99c0-31.96-21.3-58.23-55.63-58.23h-14.2v116.22H504.75z"/>
	<path d="M663.34,245.18h57.99l-2.37,29.59h-92.08V101.26h92.08l2.37,29.59h-57.99v57.99h48.53l-2.37,27.7h-46.16V245.18z"/>
	<path d="M742.64,239.5l26.75-18.46c9.71,13.73,19.41,27.22,36.93,27.22c13.97,0,20.36-10.89,20.36-18.46
		c0-30.06-71.25-33.14-71.25-82.61c0-30.3,24.62-47.82,54.44-47.82c16.81,0,34.8,7.1,46.87,18.46l-22.25,23.43
		c-6.63-6.39-15.62-13.26-24.85-13.26c-9.94,0-18.94,7.81-18.94,18.46c0,25.8,71.01,35.51,71.01,79.53
		c0,30.3-27.22,50.42-55.63,50.42C778.85,276.42,758.26,260.09,742.64,239.5z"/>
	<path d="M927.98,274.77h-36.45V101.26h36.45V274.77z"/>
	<path d="M1117.58,173.46v67.7c-16.57,21.78-42.84,35.74-71.96,35.98c-46.87-0.24-89-38.58-89.24-88.53
		c0-47.58,39.06-89.24,89.24-89.71c20.59,0,39.53,6.86,54.68,18.94l-12.78,28.88c-9.94-9.47-23.43-16.1-38.58-16.1
		c-29.59,0-54.68,26.27-54.68,57.76c0,29.83,23.43,57.52,54.68,57.52c14.44,0,27.93-5.92,38.58-16.33v-28.41h-51.6l2.13-27.46
		C1064.56,173.69,1091.31,173.46,1117.58,173.46z"/>
	<path d="M1280.43,276.9h-3.08l-92.32-89.48v87.35h-35.27V100.79h1.66l93.74,92.32v-91.84h35.27V276.9z"/>
</g>
<text transform="matrix(0.9993 -0.0383 0.0383 0.9993 520.8642 332.6302)" class="st2 st3 st4">Brush</text>
<g>
	<path d="M939.48,449.91c-1.99,1.96-4.79,3.18-7.83,3.18c-5.89,0-11.22-4.94-11.22-11.19c0-5.89,5-11.22,11.22-11.22
		c2.59,0,5,0.89,6.87,2.38l-1.25,2.86c-1.49-1.43-3.54-2.26-5.77-2.26c-4.25,0-7.8,3.75-7.8,8.24c0,4.25,3.3,8.21,7.8,8.21
		c2.29,0,4.37-0.92,5.83-2.41L939.48,449.91z"/>
	<path d="M953.82,452.8l-3.09-7.38c-0.24,0.03-0.48,0.06-0.74,0.06h-3.84v7.32h-3v-21.81h6.78c3.69,0,7.23,3.09,7.23,7.23
		c0,2.35-1.16,4.58-3.39,6.13l3.42,8.45H953.82z M949.95,442.71c2.35,0,4.25-2.05,4.25-4.49c0-2.26-1.79-4.46-4.25-4.46h-3.81v8.96
		H949.95z"/>
	<path d="M964.08,449.88h8.06l-0.3,2.92h-10.77v-21.81h10.77l0.3,2.95h-8.06v8.69h6.87l-0.3,3h-6.58V449.88z"/>
	<path d="M992.46,452.8h-3.3l-1.34-3.27h-8.42l-1.34,3.27h-3.21l8.84-22.2L992.46,452.8z M986.72,446.67l-3.12-7.94l-3.09,7.94
		H986.72z"/>
	<path d="M1001.24,433.58v19.22h-3v-19.22h-5.74l0.3-2.59h13.9l0.3,2.59H1001.24z"/>
	<path d="M1013.91,452.8h-3v-21.81h3V452.8z"/>
	<path d="M1022.06,439.2v13.6h-3v-22.08l12.47,14.13v-13.87h3v22.23L1022.06,439.2z"/>
	<path d="M1058.15,439.91v8.87c-2.02,2.56-5.21,4.31-8.81,4.31c-5.92,0-11.22-4.94-11.22-11.22c0-5.89,5-11.22,11.22-11.19
		c2.65,0,4.97,0.86,6.87,2.38l-1.28,2.92c-1.46-1.46-3.51-2.44-5.71-2.44c-4.28,0-8.15,3.84-8.15,8.36c0,4.34,3.63,8.36,8.15,8.36
		c2.11,0,4.23-0.8,5.77-2.32v-5.21h-7.23l0.24-2.8C1051.37,439.94,1054.79,439.91,1058.15,439.91z"/>
	<path d="M1078.97,445.48h-3.81v7.32h-3v-21.81h6.81c3.66,0,7.23,3.09,7.23,7.23C1086.2,441.94,1083.14,445.48,1078.97,445.48z
		 M1078.97,442.71c2.35,0,4.31-2.11,4.31-4.49c0-2.23-1.81-4.46-4.25-4.46h-3.87v8.96H1078.97z"/>
	<path d="M1093.52,452.8h-3v-21.81h3V452.8z"/>
	<path d="M1109.74,452.8l-4.61-7.97l-4.61,7.97h-3.39l6.31-10.92l-6.28-10.89h3.45l4.52,7.86l4.52-7.86h3.42l-6.22,10.8l6.37,11.01
		H1109.74z"/>
	<path d="M1119.61,449.88h8.06l-0.3,2.92h-10.77v-21.81h10.77l0.3,2.95h-8.06v8.69h6.87l-0.3,3h-6.58V449.88z"/>
	<path d="M1143.83,449.88l-0.3,2.92h-11.66v-21.81h3.06v18.89H1143.83z"/>
	<path d="M1145.88,448.34l2.59-1.79c1.52,2.11,2.77,3.63,5.42,3.63c2.62,0,3.48-2.08,3.48-2.95c0-4.28-9.61-4.52-9.61-10.59
		c0-3.81,2.98-5.89,6.49-5.89c2.11,0,4.31,0.92,5.74,2.23l-2.05,2.17c-1.1-1.01-2.47-1.67-3.66-1.67c-1.79,0-3.45,1.37-3.45,3.21
		c0,3.48,9.58,5,9.58,10.15c0,3.75-3.6,6.13-6.63,6.13C1150.43,452.98,1147.61,450.81,1145.88,448.34z"/>
	<path class="st2" d="M1193.39,443.84c-0.95,0.92-2.11,1.67-3.72,1.82c-0.33,4.05-3.72,7.79-8.33,7.79c-4.25,0-8.27-3.57-8.27-8.33
		c0-3,1.64-5.86,4.34-7.35c-0.59-0.83-0.89-1.79-0.89-2.86c0-2.56,2.14-4.7,4.79-4.79c1.34,0,2.56,0.54,3.42,1.4l-2.11,2.08
		c-0.36-0.27-0.77-0.45-1.28-0.45c-0.98,0-1.87,0.83-1.87,1.81c0,0.77,0.65,1.79,1.84,1.76c0.89-0.03,1.67,0.03,2.68,0.03v3.15
		c-1.01,0-1.9-0.06-2.68-0.09c-3.09,0.12-5.5,2.44-5.5,5.3c0,2.92,2.41,5.12,5.53,5.3c3.01-0.09,5.47-2.32,5.56-5.36
		c-0.8-0.33-1.76-0.86-2.74-0.86c-0.8,0-1.46,0.59-2.08,1.28l-2.05-1.76c1.01-1.16,2.38-2.23,4.14-2.23c1.9,0,3.45,1.46,5.33,1.46
		c0.77,0,1.46-0.45,1.99-1.04L1193.39,443.84z"/>
	<path class="st2" d="M1225.73,452.8h-3.04l-2.56-12.35l-4.76,12.53l-4.4-11.93l-2.41,11.75h-2.98l4.67-22.14l5.36,14.46l5.42-14.46
		L1225.73,452.8z"/>
	<path class="st2" d="M1228.17,441.94c0-6.34,5.38-11.22,11.28-11.22c6.28,0,11.22,5.36,11.22,11.22c0,6.28-5.42,11.25-11.22,11.25
		C1233.17,453.19,1228.17,447.83,1228.17,441.94z M1239.44,450.51c4.67,0,8.27-4.4,8.27-8.57c0-4.58-3.99-8.54-8.27-8.54
		c-4.58,0-8.33,4.23-8.33,8.54C1231.11,446.55,1235.13,450.51,1239.44,450.51z"/>
	<path class="st2" d="M1265.27,452.8l-3.09-7.38c-0.24,0.03-0.48,0.06-0.74,0.06h-3.84v7.32h-3v-21.81h6.78
		c3.69,0,7.23,3.09,7.23,7.23c0,2.35-1.16,4.58-3.39,6.13l3.42,8.45H1265.27z M1261.4,442.71c2.35,0,4.25-2.05,4.25-4.49
		c0-2.26-1.79-4.46-4.25-4.46h-3.81v8.96H1261.4z"/>
	<path class="st2" d="M1275.53,449.88h8.06l-0.3,2.92h-10.77v-21.81h10.77l0.3,2.95h-8.06v8.69h6.87l-0.3,3h-6.58V449.88z"/>
	<path class="st2" d="M1289.6,453.01c-0.92,0-1.7-0.77-1.7-1.7c0-0.95,0.77-1.73,1.7-1.73c0.98,0,1.73,0.77,1.73,1.73
		C1291.33,452.23,1290.58,453.01,1289.6,453.01z"/>
</g>
</svg>
