<svg width="59" height="59" viewBox="0 0 59 59" fill="none" xmlns="http://www.w3.org/2000/svg">
<path d="M29.7424 14.9091C21.5554 14.9091 14.9307 21.5446 14.9307 29.7208C14.9307 37.9043 21.5662 44.5326 29.7424 44.5326C37.9295 44.5326 44.5542 37.8971 44.5542 29.7208C44.5542 21.5338 37.9187 14.9091 29.7424 14.9091ZM29.7424 39.3368C24.4311 39.3368 20.1265 35.0321 20.1265 29.7208C20.1265 24.4095 24.4311 20.1049 29.7424 20.1049C35.0538 20.1049 39.3584 24.4059 39.3584 29.7208C39.3584 35.0321 35.0538 39.3368 29.7424 39.3368Z" fill="#FD92AF"/>
<path d="M41.6353 1.04624C36.324 0.797277 23.1684 0.808102 17.8498 1.04624C13.1772 1.26635 9.05658 2.39572 5.73701 5.71529C0.183945 11.2684 0.894766 18.7482 0.894766 29.7208C0.894766 40.9496 0.270543 48.2599 5.73701 53.7264C11.3081 59.2975 18.8998 58.5686 29.7425 58.5686C43.0317 58.5686 57.5728 59.8423 58.4171 41.6135C58.6661 36.2986 58.6553 23.1466 58.4171 17.8317C57.9409 7.69621 52.4996 1.5514 41.6353 1.04624ZM50.0388 50.0532C46.3981 53.6939 41.3502 53.3692 29.6668 53.3692C17.6406 53.3692 12.8164 53.546 9.29472 50.0171C5.23907 45.9831 5.97515 39.5027 5.97515 29.6847C5.97515 5.69003 7.34988 5.99673 29.6307 5.99673L29.7389 6.0689C53.6326 6.0689 53.3873 7.61683 53.3873 29.7208C53.3909 41.6063 53.6182 46.4594 50.0388 50.0532Z" fill="#E54671"/>
<path d="M45.1424 17.7848C47.0535 17.7848 48.6027 16.2356 48.6027 14.3245C48.6027 12.4135 47.0535 10.8642 45.1424 10.8642C43.2314 10.8642 41.6821 12.4135 41.6821 14.3245C41.6821 16.2356 43.2314 17.7848 45.1424 17.7848Z" fill="#FD92AF"/>
</svg>
