<svg width="58" height="59" viewBox="0 0 58 59" fill="none" xmlns="http://www.w3.org/2000/svg">
<path d="M28.8772 15.0432C20.6901 15.0432 14.0654 21.6788 14.0654 29.855C14.0654 38.0385 20.701 44.6668 28.8772 44.6668C37.0643 44.6668 43.689 38.0313 43.689 29.855C43.689 21.6679 37.0535 15.0432 28.8772 15.0432ZM28.8772 39.4709C23.5659 39.4709 19.2613 35.1663 19.2613 29.855C19.2613 24.5437 23.5659 20.2391 28.8772 20.2391C34.1885 20.2391 38.4931 24.5401 38.4931 29.855C38.4931 35.1663 34.1885 39.4709 28.8772 39.4709Z" fill="white"/>
<path d="M40.77 1.18043C35.4587 0.931463 22.3031 0.942288 16.9846 1.18043C12.3119 1.40053 8.19134 2.52991 4.87177 5.84948C-0.681289 11.4025 0.0295317 18.8824 0.0295317 29.855C0.0295317 41.0838 -0.594692 48.3941 4.87177 53.8606C10.4429 59.4317 18.0346 58.7028 28.8773 58.7028C42.1664 58.7028 56.7076 59.9765 57.5519 41.7477C57.8009 36.4328 57.79 23.2808 57.5519 17.9659C57.0756 7.83039 51.6344 1.68558 40.77 1.18043ZM49.1736 50.1874C45.5329 53.8281 40.485 53.5033 28.8015 53.5033C16.7753 53.5033 11.9511 53.6801 8.42949 50.1513C4.37384 46.1173 5.10992 39.6369 5.10992 29.8189C5.10992 5.82422 6.48465 6.13092 28.7655 6.13092L28.8737 6.20308C52.7674 6.20308 52.522 7.75101 52.522 29.855C52.5256 41.7405 52.753 46.5936 49.1736 50.1874Z" fill="white"/>
<path d="M44.2772 17.919C46.1882 17.919 47.7375 16.3698 47.7375 14.4587C47.7375 12.5476 46.1882 10.9984 44.2772 10.9984C42.3661 10.9984 40.8169 12.5476 40.8169 14.4587C40.8169 16.3698 42.3661 17.919 44.2772 17.919Z" fill="white"/>
</svg>
