<svg width="58" height="58" viewBox="0 0 58 58" fill="none" xmlns="http://www.w3.org/2000/svg">
<path d="M57.7177 57.7317L57.7322 57.7281V36.555C57.7322 26.1958 55.5023 18.218 43.3931 18.218C37.573 18.218 33.6653 21.4112 32.0705 24.4422H31.9045V19.185H20.4231V57.7281H32.3808V38.6441C32.3808 33.6179 33.3333 28.7612 39.5575 28.7612C45.6879 28.7612 45.7817 34.4947 45.7817 38.9689V57.7317H57.7177Z" fill="white"/>
<path d="M0.953125 19.1885H12.9216V57.7316H0.953125V19.1885Z" fill="white"/>
<path d="M6.93189 -6.10352e-05C3.10717 -6.10352e-05 0.000488281 3.10662 0.000488281 6.93134C0.000488281 10.7597 3.10717 13.9277 6.93189 13.9277C10.7566 13.9277 13.8633 10.7597 13.8633 6.93134C13.8633 3.10662 10.7566 -6.10352e-05 6.93189 -6.10352e-05Z" fill="white"/>
</svg>
