<svg width="59" height="59" viewBox="0 0 59 59" fill="none" xmlns="http://www.w3.org/2000/svg">
<path d="M58.583 58.5975L58.5974 58.5939V37.4208C58.5974 27.0616 56.3675 19.0838 44.2583 19.0838C38.4382 19.0838 34.5305 22.2771 32.9357 25.308H32.7697V20.0508H21.2883V58.5939H33.246V39.51C33.246 34.4837 34.1986 29.627 40.4228 29.627C46.5531 29.627 46.647 35.3605 46.647 39.8347V58.5975H58.583Z" fill="#4FA1CC"/>
<path d="M1.81836 20.0544H13.7869V58.5974H1.81836V20.0544Z" fill="#0077B5"/>
<path d="M7.79713 0.865784C3.97241 0.865784 0.865723 3.97247 0.865723 7.79719C0.865723 11.6255 3.97241 14.7935 7.79713 14.7935C11.6218 14.7935 14.7285 11.6255 14.7285 7.79719C14.7285 3.97247 11.6218 0.865784 7.79713 0.865784Z" fill="#0077B5"/>
</svg>
