<svg width="58" height="42" viewBox="0 0 58 42" fill="none" xmlns="http://www.w3.org/2000/svg">
<path d="M56.4547 6.26338L56.5269 6.73245C55.8305 4.25721 53.9434 2.34846 51.5512 1.65207L51.5007 1.64124C47.0012 0.418053 28.8915 0.418054 28.8915 0.418054C28.8915 0.418054 10.8251 0.396404 6.28234 1.64124C3.83957 2.34846 1.95607 4.25721 1.27051 6.68194L1.25968 6.73245C-0.42175 15.5149 -0.432575 26.0653 1.33546 35.472L1.25968 34.9957C1.95607 37.4709 3.84317 39.3797 6.23543 40.0761L6.28594 40.0869C10.7818 41.3101 28.8951 41.3101 28.8951 41.3101C28.8951 41.3101 46.9579 41.3101 51.5043 40.0869C53.947 39.3797 55.8305 37.4709 56.5161 35.0462L56.5269 34.9957C57.2955 30.9112 57.7321 26.2133 57.7321 21.4107C57.7321 21.2339 57.7321 21.0571 57.7285 20.8803C57.7321 20.7143 57.7321 20.5195 57.7321 20.3246C57.7321 15.5185 57.2955 10.8206 56.4547 6.26338ZM23.1111 29.6483V12.1051L38.1863 20.8911L23.1111 29.6483Z" fill="white"/>
</svg>
