<svg width="59" height="42" viewBox="0 0 59 42" fill="none" xmlns="http://www.w3.org/2000/svg">
<path d="M57.32 6.12917L57.3921 6.59824C56.6958 4.12299 54.8087 2.21424 52.4164 1.51785L52.3659 1.50703C47.8664 0.283837 29.7567 0.283838 29.7567 0.283838C29.7567 0.283838 11.6903 0.262188 7.14757 1.50703C4.7048 2.21424 2.82131 4.12299 2.13574 6.54772L2.12492 6.59824C0.443485 15.3807 0.43266 25.9311 2.20069 35.3378L2.12492 34.8615C2.82131 37.3367 4.70841 39.2455 7.10066 39.9419L7.15118 39.9527C11.647 41.1759 29.7603 41.1759 29.7603 41.1759C29.7603 41.1759 47.8231 41.1759 52.3695 39.9527C54.8123 39.2455 56.6958 37.3367 57.3813 34.912L57.3921 34.8615C58.1607 30.777 58.5973 26.0791 58.5973 21.2765C58.5973 21.0997 58.5973 20.9229 58.5937 20.7461C58.5973 20.5801 58.5973 20.3853 58.5973 20.1904C58.5973 15.3843 58.1607 10.6864 57.32 6.12917ZM23.9763 29.5141V11.9709L39.0515 20.7569L23.9763 29.5141Z" fill="#E53935"/>
</svg>
